<svg width="871" height="199" viewBox="0 0 871 199" fill="none" xmlns="http://www.w3.org/2000/svg">
<g clip-path="url(#clip0_2145_2373)">
<path d="M20.4657 149.256C6.84972 135.535 0.024551 118.964 0 99.547C0 80.1007 6.81535 63.4997 20.4657 49.7488L45.1493 74.6231C38.3339 81.4912 34.9508 89.7892 34.9802 99.5124C34.9557 109.235 38.3437 117.524 45.1493 124.387L20.4657 149.261V149.256ZM69.8279 199L45.1443 174.126L94.5164 124.372C101.322 117.514 104.715 109.221 104.685 99.4975C104.71 89.7744 101.322 81.4862 94.5164 74.6231L119.2 49.7488C132.84 63.4947 139.666 80.0859 139.656 99.5371C139.631 118.954 132.811 135.52 119.2 149.236L69.8279 198.99V199ZM69.8279 49.7438L45.1443 24.8694L69.8279 0L94.5115 24.8744L69.8279 49.7488V49.7438Z" fill="#EC683D"/>
<path d="M207.444 152.479C200.241 150.371 194.452 147.629 190.082 144.26L197.752 127.114C201.935 130.207 206.909 132.691 212.674 134.561C218.438 136.437 224.198 137.372 229.968 137.372C236.38 137.372 241.124 136.412 244.192 134.492C247.261 132.572 248.793 130.019 248.793 126.832C248.793 124.492 247.885 122.547 246.073 120.998C244.261 119.455 241.934 118.213 239.101 117.272C236.262 116.337 232.428 115.303 227.596 114.18C220.157 112.403 214.068 110.622 209.33 108.841C204.587 107.064 200.521 104.204 197.128 100.271C193.735 96.3368 192.036 91.0918 192.036 84.5305C192.036 78.8154 193.568 73.6396 196.637 69.0032C199.706 64.3668 204.327 60.6903 210.513 57.9738C216.695 55.2572 224.247 53.8965 233.174 53.8965C239.4 53.8965 245.494 54.6486 251.44 56.1429C257.391 57.6422 262.596 59.7947 267.059 62.6052L260.087 79.8891C251.067 74.7381 242.052 72.1601 233.036 72.1601C226.712 72.1601 222.042 73.1893 219.023 75.2527C215.998 77.3161 214.491 80.0326 214.491 83.4023C214.491 86.772 216.234 89.2808 219.72 90.9186C223.206 92.5564 228.529 94.1745 235.688 95.7678C243.127 97.5491 249.216 99.3305 253.954 101.107C258.697 102.888 262.763 105.699 266.156 109.539C269.549 113.378 271.248 118.579 271.248 125.135C271.248 130.756 269.691 135.887 266.578 140.524C263.46 145.16 258.79 148.837 252.564 151.553C246.333 154.27 238.757 155.631 229.835 155.631C222.116 155.631 214.658 154.577 207.454 152.469L207.444 152.479Z" fill="white"/>
<path d="M336.155 135.756C339.175 134.584 341.989 132.733 344.591 130.204L356.164 142.852C349.099 151.002 338.777 155.079 325.206 155.079C316.745 155.079 309.262 153.416 302.756 150.091C296.25 146.766 291.227 142.149 287.697 136.251C284.161 130.348 282.398 123.653 282.398 116.157C282.398 108.66 284.142 102.084 287.628 96.1314C291.114 90.1838 295.901 85.5473 301.99 82.2172C308.079 78.8921 314.933 77.2295 322.559 77.2295C329.718 77.2295 336.224 78.7535 342.082 81.7966C347.94 84.8447 352.609 89.2436 356.096 95.0082C359.582 100.768 361.325 107.586 361.325 115.454L305.825 126.276C307.406 130.026 309.891 132.832 313.284 134.707C316.677 136.583 320.835 137.518 325.765 137.518C329.669 137.518 333.131 136.934 336.155 135.761V135.756ZM309.174 99.1498C305.732 102.712 303.92 107.631 303.733 113.905L340.27 106.74C339.249 102.807 337.157 99.6694 333.995 97.324C330.833 94.9835 327.022 93.8108 322.559 93.8108C317.074 93.8108 312.611 95.5921 309.174 99.1498Z" fill="white"/>
<path d="M383.077 148.259C378.334 143.716 375.967 137.274 375.967 128.936V49.6816H397.719V127.674C397.719 130.861 398.535 133.32 400.16 135.052C401.785 136.789 404.088 137.65 407.064 137.65C408.178 137.65 409.317 137.511 410.481 137.229C411.645 136.947 412.548 136.621 413.201 136.245L414.178 153.247C410.555 154.464 406.789 155.072 402.885 155.072C394.425 155.072 387.825 152.801 383.082 148.259H383.077Z" fill="white"/>
<path d="M473.091 135.756C476.111 134.584 478.924 132.733 481.527 130.204L493.1 142.852C486.034 151.002 475.713 155.079 462.141 155.079C453.681 155.079 446.198 153.416 439.692 150.091C433.186 146.766 428.163 142.149 424.632 136.251C421.097 130.348 419.334 123.653 419.334 116.157C419.334 108.66 421.077 102.084 424.563 96.1314C428.05 90.1838 432.837 85.5473 438.926 82.2172C445.014 78.8921 451.869 77.2295 459.494 77.2295C466.654 77.2295 473.16 78.7535 479.017 81.7966C484.875 84.8447 489.545 89.2436 493.031 95.0082C496.517 100.768 498.26 107.586 498.26 115.454L442.761 126.276C444.342 130.026 446.826 132.832 450.219 134.707C453.612 136.583 457.771 137.518 462.701 137.518C466.604 137.518 470.066 136.934 473.091 135.761V135.756ZM446.109 99.1498C442.667 102.712 440.855 107.631 440.669 113.905L477.206 106.74C476.179 102.807 474.088 99.6694 470.93 97.324C467.768 94.9835 463.958 93.8108 459.494 93.8108C454.01 93.8108 449.546 95.5921 446.109 99.1498Z" fill="white"/>
<path d="M533.191 150.086C526.823 146.761 521.849 142.144 518.269 136.246C514.69 130.343 512.902 123.648 512.902 116.152C512.902 108.655 514.69 101.96 518.269 96.0572C521.849 90.1541 526.823 85.5424 533.191 82.2172C539.56 78.8921 546.739 77.2295 554.737 77.2295C562.736 77.2295 569.541 78.8921 575.444 82.2172C581.346 85.5424 585.647 90.2976 588.343 96.4828L571.471 105.617C567.568 98.6847 561.94 95.216 554.6 95.216C548.928 95.216 544.234 97.0914 540.517 100.837C536.8 104.583 534.939 109.689 534.939 116.157C534.939 122.624 536.8 127.725 540.517 131.476C544.234 135.227 548.928 137.097 554.6 137.097C562.034 137.097 567.661 133.634 571.471 126.696L588.343 135.969C585.647 141.966 581.346 146.647 575.444 150.022C569.537 153.396 562.638 155.079 554.737 155.079C546.837 155.079 539.56 153.416 533.191 150.091V150.086Z" fill="white"/>
<path d="M651.65 150.297C649.509 151.89 646.887 153.088 643.769 153.879C640.656 154.676 637.425 155.072 634.076 155.072C625.056 155.072 618.133 152.776 613.296 148.184C608.46 143.597 606.044 136.848 606.044 127.946V61.626H627.796V80.0331H646.342V96.8964H627.796V127.669C627.796 130.856 628.587 133.315 630.168 135.047C631.749 136.784 634.022 137.644 637.003 137.644C640.352 137.644 643.322 136.709 645.929 134.834L651.645 150.292L651.65 150.297Z" fill="white"/>
<path d="M667.823 64.2951C665.314 61.9546 664.057 59.05 664.057 55.5814C664.057 52.1127 665.314 49.2131 667.823 46.8677C670.332 44.5272 673.587 43.3545 677.584 43.3545C681.581 43.3545 684.837 44.4777 687.346 46.7291C689.855 48.9756 691.112 51.7861 691.112 55.1608C691.112 58.8125 689.855 61.8359 687.346 64.2258C684.837 66.6158 681.581 67.8083 677.584 67.8083C673.587 67.8083 670.332 66.6356 667.823 64.2951ZM666.708 78.3478H688.46V153.951H666.708V78.3478Z" fill="white"/>
<path d="M785.936 78.3477L754.28 153.951H731.831L700.317 78.3477H722.767L743.547 129.779L765.024 78.3477H785.941H785.936Z" fill="white"/>
<path d="M870.999 78.3489V153.952H850.224V145.238C844.832 151.794 837.02 155.075 826.797 155.075C819.731 155.075 813.338 153.482 807.623 150.295C801.907 147.113 797.419 142.566 794.164 136.663C790.909 130.76 789.283 123.921 789.283 116.148C789.283 108.374 790.909 101.531 794.164 95.6328C797.415 89.7296 801.902 85.1872 807.623 82.0006C813.338 78.819 819.731 77.2207 826.797 77.2207C836.372 77.2207 843.855 80.2638 849.247 86.355V78.3439H870.999V78.3489ZM844.223 131.398C847.847 127.603 849.664 122.521 849.664 116.153C849.664 109.785 847.852 104.698 844.223 100.908C840.595 97.1172 836.043 95.2171 830.558 95.2171C825.074 95.2171 820.38 97.1123 816.751 100.908C813.122 104.703 811.31 109.785 811.31 116.153C811.31 122.521 813.122 127.608 816.751 131.398C820.38 135.188 824.98 137.088 830.558 137.088C836.136 137.088 840.6 135.193 844.223 131.398Z" fill="white"/>
</g>
<defs>
<clipPath id="clip0_2145_2373">
<rect width="871" height="199" fill="white"/>
</clipPath>
</defs>
</svg>
